<?xml version="1.0" encoding="UTF-8"?>
<svg width="101px" height="175px" viewBox="0 0 101 175" version="1.1" xmlns="http://www.w3.org/2000/svg" xmlns:xlink="http://www.w3.org/1999/xlink">
    <title>bulb</title>
    <g id="Page-1" stroke="none" stroke-width="1" fill="none" fill-rule="evenodd">
        <g id="bulb" transform="translate(0.8281, 0.6575)" fill="#FF453A" fill-rule="nonzero">
            <path d="M0,46.0705566 C0,39.5788574 1.27807617,33.5437012 3.83422852,27.9650879 C6.39038086,22.3864746 9.95544434,17.510376 14.5294189,13.336792 C19.1033936,9.16320801 24.4116211,5.89701335 30.4541016,3.53820801 C36.496582,1.17940267 42.9781087,0 49.8986816,0 C56.8705241,0 63.3776855,1.17940267 69.420166,3.53820801 C75.4626465,5.89701335 80.7602946,9.16442871 85.3131104,13.3404541 C89.8659261,17.5164795 93.4204102,22.3937988 95.9765625,27.9724121 C98.5327148,33.5510254 99.810791,39.5861816 99.810791,46.0778809 C99.810791,51.7248535 99.1778564,56.729126 97.9119873,61.0906982 C96.6461182,65.4522705 95.0583903,69.7393799 93.1488037,73.9520264 C91.2392171,78.1646729 89.2565918,82.7866618 87.2009277,87.8179932 C85.1452637,92.8493245 83.3123779,98.7811279 81.7022705,105.613403 C80.0921631,112.445679 78.9921061,120.728353 78.4020996,130.461426 C78.3451335,132.026367 77.851766,133.258667 76.9219971,134.158325 C75.9922282,135.057983 74.6976725,135.507812 73.0383301,135.507812 L26.7651367,135.507812 C25.1529948,135.507812 23.8820394,135.057983 22.9522705,134.158325 C22.0225016,133.258667 21.5055339,132.026367 21.4013672,130.461426 C20.859375,120.728353 19.7713216,112.444458 18.137207,105.609741 C16.5030924,98.7750244 14.6700033,92.843221 12.6379395,87.8143311 C10.6058757,82.7854411 8.62447103,78.1634521 6.69372559,73.9483643 C4.76298014,69.7332764 3.16467285,65.4449463 1.89880371,61.083374 C0.63293457,56.7218018 0,51.7175293 0,46.0705566 Z M26.3647461,152.078857 C25.0545247,152.078857 23.9719645,151.636963 23.1170654,150.753174 C22.2621663,149.869385 21.8347168,148.805745 21.8347168,147.562256 C21.8347168,146.309814 22.2621663,145.24292 23.1170654,144.361572 C23.9719645,143.480225 25.0545247,143.039551 26.3647461,143.039551 L73.5095215,143.039551 C74.7725423,143.039551 75.8420817,143.480225 76.7181396,144.361572 C77.5941976,145.24292 78.0322266,146.309814 78.0322266,147.562256 C78.0322266,148.805745 77.5941976,149.869385 76.7181396,150.753174 C75.8420817,151.636963 74.7725423,152.078857 73.5095215,152.078857 L26.3647461,152.078857 Z M49.8986816,173.763428 C44.103597,173.763428 39.0942383,172.466838 34.8706055,169.873657 C30.6469727,167.280477 28.3947754,163.859456 28.1140137,159.610596 L71.7150879,159.610596 C71.3407389,163.859456 69.0596517,167.280477 64.8718262,169.873657 C60.6840007,172.466838 55.6929525,173.763428 49.8986816,173.763428 Z" id="Shape"></path>
        </g>
    </g>
</svg>