<?xml version="1.0" encoding="UTF-8"?>
<svg width="125px" height="162px" viewBox="0 0 125 162" version="1.1" xmlns="http://www.w3.org/2000/svg" xmlns:xlink="http://www.w3.org/1999/xlink">
    <title>goal_tracking</title>
    <g id="Page-1" stroke="none" stroke-width="1" fill="none" fill-rule="evenodd">
        <g id="goal_tracking" transform="translate(0.2031, 0.4495)" fill="#FF453A" fill-rule="nonzero">
            <path d="M58.7438965,160.952148 C46.9559733,160.952148 36.6548665,158.843791 27.8405762,154.627075 C19.0262858,150.41036 12.1826172,144.484456 7.30957031,136.849365 C2.43652344,129.214274 0,120.291748 0,110.081787 C0,104.709066 0.432128906,99.9497477 1.29638672,95.803833 C2.16064453,91.6579183 3.23465983,87.9284668 4.51843262,84.6154785 C5.8022054,81.3024902 7.07417806,78.1884766 8.33435059,75.2734375 C9.59452311,72.3583984 10.6567383,69.4580078 11.5209961,66.5722656 C12.3852539,63.6865234 12.8173828,60.5594889 12.8173828,57.1911621 C12.8173828,55.4756673 12.726237,53.6641439 12.5439453,51.7565918 C12.3616536,49.8490397 12.2705078,48.3784993 12.2705078,47.3449707 C12.2705078,45.5375163 12.7756755,44.0958659 13.7860107,43.0200195 C14.796346,41.9441732 16.1381022,41.40625 17.8112793,41.40625 C20.3503418,41.40625 22.9128011,42.1641032 25.4986572,43.6798096 C28.0845133,45.195516 30.4636637,47.3276774 32.6361084,50.0762939 C34.8085531,52.8249105 36.4941406,56.0514323 37.6928711,59.7558594 L34.1650391,60.5517578 C35.2571615,58.6816406 35.945638,57.004598 36.2304688,55.5206299 C36.5152995,54.0366618 36.6577148,52.5268555 36.6577148,50.9912109 C36.6105143,46.1661784 35.7295736,41.5974935 34.0148926,37.2851562 C32.3002116,32.972819 30.1055908,28.8474528 27.4310303,24.9090576 C24.7564697,20.9706624 21.9071452,17.2167969 18.8830566,13.6474609 C18.1188965,12.7164714 17.5158691,11.749471 17.0739746,10.74646 C16.6320801,9.74344889 16.4111328,8.74064128 16.4111328,7.73803711 C16.4111328,5.21850586 17.4987793,3.2989502 19.6740723,1.97937012 C21.8493652,0.659790039 24.7648112,0 28.4204102,0 C34.9609375,0 41.8568929,0.786336263 49.1082764,2.35900879 C56.3596598,3.93168132 63.5756429,6.36739095 70.7562256,9.6661377 C77.9368083,12.9648844 84.7385661,17.1435547 91.161499,22.2021484 C97.584432,27.2607422 103.300578,33.274943 108.309937,40.244751 C113.319295,47.2145589 117.266235,55.1908366 120.150757,64.173584 C123.035278,73.1563314 124.477539,83.1726074 124.477539,94.2224121 C124.477539,107.609456 121.729736,119.306641 116.234131,129.313965 C110.738525,139.321289 103.059082,147.096151 93.1958008,152.63855 C83.3325195,158.180949 71.8485514,160.952148 58.7438965,160.952148 Z M60.4296875,139.11499 C66.2443034,139.11499 71.0762533,137.857869 74.9255371,135.343628 C78.774821,132.829386 81.6705322,129.502767 83.6126709,125.36377 C85.5548096,121.224772 86.5258789,116.699626 86.5258789,111.78833 C86.5258789,106.931559 85.5975342,102.044678 83.7408447,97.1276855 C81.8841553,92.2106934 79.1355387,87.7138265 75.4949951,83.637085 C71.8544515,79.5603434 67.3457845,76.2711589 61.9689941,73.7695312 C61.5962728,73.5880534 61.2874349,73.6047363 61.0424805,73.8195801 C60.797526,74.0344238 60.7108561,74.3408203 60.7824707,74.7387695 C61.385498,80.6722005 61.3094076,86.1747233 60.5541992,91.2463379 C59.7989909,96.3179525 58.4493001,100.237223 56.505127,103.00415 C55.6400553,100.828044 54.6303304,98.8142904 53.4759521,96.9628906 C52.3215739,95.1114909 50.9053548,93.4354655 49.2272949,91.9348145 C48.9009603,91.6662598 48.6035156,91.5875244 48.3349609,91.6986084 C48.0664062,91.8096924 47.9060872,92.072347 47.8540039,92.4865723 C47.5463867,94.6407064 46.8520101,96.6119385 45.770874,98.4002686 C44.689738,100.188599 43.5174561,102.013957 42.2540283,103.876343 C40.9906006,105.738729 39.895223,107.827962 38.9678955,110.144043 C38.040568,112.460124 37.5769043,115.246175 37.5769043,118.502197 C37.5769043,124.674886 39.6693929,129.653524 43.8543701,133.43811 C48.0393473,137.222697 53.5644531,139.11499 60.4296875,139.11499 Z" id="Shape"></path>
        </g>
    </g>
</svg>