<?xml version="1.0" encoding="UTF-8"?>
<svg width="149px" height="138px" viewBox="0 0 149 138" version="1.1" xmlns="http://www.w3.org/2000/svg" xmlns:xlink="http://www.w3.org/1999/xlink">
    <title>health</title>
    <g id="Page-1" stroke="none" stroke-width="1" fill="none" fill-rule="evenodd">
        <g id="health" transform="translate(0.8281, 0.4077)" fill="#FF453A" fill-rule="nonzero">
            <path d="M74.1088867,137.067871 C73.2373047,137.067871 72.2257487,136.814372 71.0742188,136.307373 C69.9226888,135.800374 68.8708496,135.228678 67.9187012,134.592285 C54.0775553,125.738118 42.0733643,116.431071 31.9061279,106.671143 C21.7388916,96.9112142 13.8793945,86.8884277 8.32763672,76.6027832 C2.77587891,66.3171387 0,55.9065755 0,45.3710938 C0,38.7198893 1.06547038,32.6239014 3.19641113,27.0831299 C5.32735189,21.5423584 8.3017985,16.7390951 12.119751,12.6733398 C15.9377035,8.60758464 20.3806559,5.47892253 25.4486084,3.28735352 C30.5165609,1.09578451 35.9639486,0 41.7907715,0 C49.095459,0 55.4797363,1.85770671 60.9436035,5.57312012 C66.4074707,9.28853353 70.7958984,14.1853841 74.1088867,20.2636719 C77.4267578,14.1381836 81.8058268,9.22953288 87.2460938,5.53771973 C92.6863607,1.84590658 99.0563965,0 106.356201,0 C112.235107,0 117.696737,1.09578451 122.741089,3.28735352 C127.785441,5.47892253 132.216593,8.60758464 136.034546,12.6733398 C139.852498,16.7390951 142.825724,21.5423584 144.954224,27.0831299 C147.082723,32.6239014 148.146973,38.7198893 148.146973,45.3710938 C148.146973,55.9065755 145.371094,66.3171387 139.819336,76.6027832 C134.267578,86.8884277 126.409302,96.9112142 116.244507,106.671143 C106.079712,116.431071 94.0767415,125.738118 80.2355957,134.592285 C79.2785645,135.228678 78.2242839,135.800374 77.0727539,136.307373 C75.921224,136.814372 74.9332682,137.067871 74.1088867,137.067871 Z" id="Path"></path>
        </g>
    </g>
</svg>