<?xml version="1.0" encoding="UTF-8"?>
<svg width="148px" height="148px" viewBox="0 0 148 148" version="1.1" xmlns="http://www.w3.org/2000/svg" xmlns:xlink="http://www.w3.org/1999/xlink">
    <title>management</title>
    <g id="Page-1" stroke="none" stroke-width="1" fill="none" fill-rule="evenodd">
        <g id="management" transform="translate(0.3708, 0.3382)" fill="#FF453A" fill-rule="nonzero">
            <path d="M23.762207,146.791163 C15.9130859,146.791163 9.99043783,144.816879 5.9942627,140.868312 C1.99808757,136.919744 0,131.067693 0,123.312159 L0,38.3597667 C0,30.5627289 1.99808757,24.7015229 5.9942627,20.7761485 C9.99043783,16.8507742 15.9130859,14.888087 23.762207,14.888087 L106.687012,14.888087 L93.4240723,28.1510265 L24.2871094,28.1510265 C20.7250977,28.1510265 17.9960124,29.0824229 16.0998535,30.9452159 C14.2036947,32.8080089 13.2556152,35.5985362 13.2556152,39.3167979 L13.2556152,122.292872 C13.2556152,126.011134 14.2036947,128.801661 16.0998535,130.664454 C17.9960124,132.527247 20.7250977,133.458644 24.2871094,133.458644 L109.615479,133.458644 C112.174072,133.458644 114.31783,132.527247 116.046753,130.664454 C117.775675,128.801661 118.640137,126.011134 118.640137,122.292872 L118.640137,53.8993175 L131.903076,40.5667979 L131.903076,123.312159 C131.903076,131.067693 129.99939,136.919744 126.192017,140.868312 C122.384644,144.816879 117.057699,146.791163 110.211182,146.791163 L23.762207,146.791163 Z M51.1791992,98.0533702 C50.4272461,98.3862153 49.7257487,98.2136892 49.074707,97.5357921 C48.4236654,96.8578949 48.2718913,96.1486664 48.6193848,95.4081065 L55.2685547,81.1246593 L123.359375,13.0326182 L134.127197,23.6661632 L65.9716797,91.75088 L51.1791992,98.0533702 Z M139.693604,18.0997569 L128.981934,7.34047958 L134.259033,2.13296005 C135.542399,0.849594161 137.038778,0.144638107 138.748169,0.0180918828 C140.45756,-0.108454341 141.915283,0.428858484 143.121338,1.63003036 L144.968262,3.46108505 C146.298828,4.78676864 146.959025,6.31590276 146.948968,8.04848739 C146.93868,9.78107203 146.263428,11.3411306 144.923096,12.7286632 L139.693604,18.0997569 Z" id="Shape"></path>
        </g>
    </g>
</svg>