<?xml version="1.0" encoding="UTF-8"?>
<svg width="152px" height="153px" viewBox="0 0 152 153" version="1.1" xmlns="http://www.w3.org/2000/svg" xmlns:xlink="http://www.w3.org/1999/xlink">
    <title>minimal</title>
    <g id="Page-1" stroke="none" stroke-width="1" fill="none" fill-rule="evenodd">
        <g id="minimal" transform="translate(0.2031, 0.7812)" fill="#FF453A" fill-rule="nonzero">
            <path d="M75.9375,151.796875 C65.5208333,151.796875 55.7421875,149.804688 46.6015625,145.820312 C37.4609375,141.835938 29.4010417,136.354167 22.421875,129.375 C15.4427083,122.395833 9.9609375,114.335938 5.9765625,105.195312 C1.9921875,96.0546875 0,86.2760417 0,75.859375 C0,65.4947917 1.97916667,55.7291667 5.9375,46.5625 C9.89583333,37.3958333 15.3776042,29.3098958 22.3828125,22.3046875 C29.3880208,15.2994792 37.4609375,9.83072917 46.6015625,5.8984375 C55.7421875,1.96614583 65.4947917,0 75.859375,0 C86.2239583,0 95.9895833,1.96614583 105.15625,5.8984375 C114.322917,9.83072917 122.395833,15.2994792 129.375,22.3046875 C136.354167,29.3098958 141.835938,37.3958333 145.820312,46.5625 C149.804688,55.7291667 151.796875,65.4947917 151.796875,75.859375 C151.796875,86.2760417 149.817708,96.0546875 145.859375,105.195312 C141.901042,114.335938 136.432292,122.395833 129.453125,129.375 C122.473958,136.354167 114.401042,141.835938 105.234375,145.820312 C96.0677083,149.804688 86.3020833,151.796875 75.9375,151.796875 Z M75.9375,137.890625 C84.53125,137.890625 92.578125,136.289062 100.078125,133.085938 C107.578125,129.882812 114.166667,125.442708 119.84375,119.765625 C125.520833,114.088542 129.947917,107.5 133.125,100 C136.302083,92.5 137.890625,84.453125 137.890625,75.859375 C137.890625,67.265625 136.302083,59.21875 133.125,51.71875 C129.947917,44.21875 125.520833,37.6302083 119.84375,31.953125 C114.166667,26.2760417 107.565104,21.8489583 100.039062,18.671875 C92.5130208,15.4947917 84.453125,13.90625 75.859375,13.90625 C67.265625,13.90625 59.2317708,15.4947917 51.7578125,18.671875 C44.2838542,21.8489583 37.7083333,26.2760417 32.03125,31.953125 C26.3541667,37.6302083 21.9270833,44.21875 18.75,51.71875 C15.5729167,59.21875 13.984375,67.265625 13.984375,75.859375 C13.984375,84.453125 15.5729167,92.5 18.75,100 C21.9270833,107.5 26.3541667,114.088542 32.03125,119.765625 C37.7083333,125.442708 44.296875,129.882812 51.796875,133.085938 C59.296875,136.289062 67.34375,137.890625 75.9375,137.890625 Z M67.8125,111.015625 C66.5104167,111.015625 65.3385417,110.729167 64.296875,110.15625 C63.2552083,109.583333 62.2395833,108.645833 61.25,107.34375 L43.515625,85.703125 C42.3177083,84.140625 41.71875,82.5260417 41.71875,80.859375 C41.71875,79.140625 42.3046875,77.6822917 43.4765625,76.484375 C44.6484375,75.2864583 46.09375,74.6875 47.8125,74.6875 C48.90625,74.6875 49.8958333,74.8958333 50.78125,75.3125 C51.6666667,75.7291667 52.5520833,76.5104167 53.4375,77.65625 L67.578125,95.78125 L97.421875,47.890625 C98.9322917,45.546875 100.78125,44.375 102.96875,44.375 C104.583333,44.375 106.041667,44.8958333 107.34375,45.9375 C108.645833,46.9791667 109.296875,48.359375 109.296875,50.078125 C109.296875,50.9635417 109.114583,51.8229167 108.75,52.65625 C108.385417,53.4895833 107.96875,54.2708333 107.5,55 L74.0625,107.34375 C72.5520833,109.791667 70.46875,111.015625 67.8125,111.015625 Z" id="Shape"></path>
        </g>
    </g>
</svg>