<?xml version="1.0" encoding="UTF-8"?>
<svg width="142px" height="157px" viewBox="0 0 142 157" version="1.1" xmlns="http://www.w3.org/2000/svg" xmlns:xlink="http://www.w3.org/1999/xlink">
    <title>notifications</title>
    <g id="Page-1" stroke="none" stroke-width="1" fill="none" fill-rule="evenodd">
        <g id="notifications" transform="translate(0.5676, 0.4314)" fill="#FF453A" fill-rule="nonzero">
            <path d="M11.6589355,126.464844 C8.01391602,126.464844 5.15950521,125.579224 3.09570312,123.807983 C1.03190104,122.036743 0,119.717204 0,116.849365 C0,113.051351 1.4851888,109.449463 4.45556641,106.043701 C7.42594401,102.637939 10.5533854,99.3196615 13.8378906,96.0888672 C15.5029297,94.3806966 16.8011475,92.175293 17.7325439,89.4726562 C18.6639404,86.7700195 19.3493652,83.8358561 19.7888184,80.670166 C20.2282715,77.5044759 20.5822754,74.3884277 20.8508301,71.3220215 C21.1031087,62.0967611 22.2005208,53.8476562 24.1430664,46.574707 C26.085612,39.3017578 29.0659587,33.1825765 33.0841064,28.2171631 C37.1022542,23.2517497 42.3498535,19.588623 48.8269043,17.2277832 C50.2933757,12.4108887 52.9016113,8.33536784 56.6516113,5.0012207 C60.4016113,1.66707357 65.0134277,0 70.4870605,0 C75.9558105,0 80.5662028,1.66707357 84.3182373,5.0012207 C88.0702718,8.33536784 90.6799316,12.4108887 92.1472168,17.2277832 C98.6242676,19.588623 103.859863,23.2517497 107.854004,28.2171631 C111.848145,33.1825765 114.816691,39.3017578 116.759644,46.574707 C118.702596,53.8476562 119.820964,62.0967611 120.114746,71.3220215 C120.3361,74.3884277 120.679525,77.5044759 121.14502,80.670166 C121.610514,83.8358561 122.307739,86.7700195 123.236694,89.4726562 C124.165649,92.175293 125.465088,94.3806966 127.13501,96.0888672 C130.414632,99.3196615 133.541056,102.637939 136.514282,106.043701 C139.487508,109.449463 140.974121,113.051351 140.974121,116.849365 C140.974121,119.717204 139.940999,122.036743 137.874756,123.807983 C135.808512,125.579224 132.952474,126.464844 129.306641,126.464844 L11.6589355,126.464844 Z M70.4870605,156.512451 C66.2300618,156.512451 62.4127197,155.5896 59.0350342,153.743896 C55.6573486,151.898193 52.9457601,149.47876 50.9002686,146.485596 C48.854777,143.492432 47.6757812,140.218506 47.3632812,136.663818 L93.6035156,136.663818 C93.2958984,140.218506 92.1193441,143.492432 90.0738525,146.485596 C88.028361,149.47876 85.3167725,151.898193 81.9390869,153.743896 C78.5614014,155.5896 74.7440592,156.512451 70.4870605,156.512451 Z" id="Shape"></path>
        </g>
    </g>
</svg>