<?xml version="1.0" encoding="UTF-8"?>
<svg width="162px" height="140px" viewBox="0 0 162 140" version="1.1" xmlns="http://www.w3.org/2000/svg" xmlns:xlink="http://www.w3.org/1999/xlink">
    <title>progress</title>
    <g id="Page-1" stroke="none" stroke-width="1" fill="none" fill-rule="evenodd">
        <g id="progress" transform="translate(0.8281, 0.7319)" fill="#FF453A" fill-rule="nonzero">
            <path d="M0,132.41333 L0,6.73217773 C0,4.90600586 0.646362305,3.32743327 1.93908691,1.99645996 C3.23181152,0.665486654 4.81933594,0 6.70166016,0 C8.54248047,0 10.1080322,0.665486654 11.3983154,1.99645996 C12.6885986,3.32743327 13.3337402,4.90600586 13.3337402,6.73217773 L13.3337402,123.227539 C13.3337402,124.571126 14.0083822,125.24292 15.357666,125.24292 L153.737793,125.24292 C155.568848,125.24292 157.138265,125.889282 158.446045,127.182007 C159.753825,128.474731 160.407715,130.039062 160.407715,131.875 C160.407715,133.763021 159.753825,135.340169 158.446045,136.606445 C157.138265,137.872721 155.568848,138.505859 153.737793,138.505859 L6.171875,138.505859 C4.28304036,138.505859 2.78218587,137.950643 1.66931152,136.84021 C0.556437174,135.729777 0,134.25415 0,132.41333 Z M12.1972656,92.3046875 L2.51098633,82.6342773 L35.6311035,49.0087891 C37.4051921,47.2298177 39.1271973,45.9525553 40.7971191,45.177002 C42.467041,44.4014486 44.1890462,44.0136719 45.9631348,44.0136719 C47.7941895,44.0136719 49.5589193,44.4144694 51.2573242,45.2160645 C52.9557292,46.0176595 54.6374512,47.281901 56.3024902,49.0087891 L83.0603027,76.5979004 C83.7268066,77.2692871 84.3961589,77.6049805 85.0683594,77.6049805 C85.7405599,77.6049805 86.4050293,77.2717285 87.0617676,76.6052246 L115.983887,47.2094727 L104.088135,35.3686523 C103.15389,34.3929036 102.685547,33.3628337 102.683105,32.2784424 C102.680664,31.1940511 103.067424,30.2121989 103.843384,29.3328857 C104.619344,28.4535726 105.692546,27.8401693 107.062988,27.4926758 L150.435791,16.472168 C151.654867,16.1767578 152.787272,16.2792969 153.833008,16.7797852 C154.878743,17.2802734 155.663656,18.0403646 156.187744,19.0600586 C156.711833,20.0797526 156.802572,21.2227376 156.459961,22.4890137 L145.494385,65.8679199 C145.099691,67.2391764 144.461466,68.3219401 143.579712,69.1162109 C142.697957,69.9104818 141.713664,70.3063965 140.626831,70.3039551 C139.539998,70.3015137 138.508708,69.8124186 137.532959,68.8366699 L125.646973,56.9433594 L95.3930664,87.298584 C92.0157878,90.6750488 88.5717773,92.3632812 85.0610352,92.3632812 C83.277181,92.3632812 81.5242513,91.9496663 79.8022461,91.1224365 C78.0802409,90.2952067 76.3867188,89.0181478 74.7216797,87.2912598 L47.9638672,59.7875977 C47.2965495,59.1153971 46.6271973,58.7792969 45.9558105,58.7792969 C45.2884928,58.7792969 44.6236165,59.1153971 43.9611816,59.7875977 L12.1972656,92.3046875 Z" id="Shape"></path>
        </g>
    </g>
</svg>